<svg width="112" height="112" viewBox="0 0 112 112" fill="none" xmlns="http://www.w3.org/2000/svg">
<rect width="112" height="112" rx="56" fill="white"/>
<g clip-path="url(#clip0_11884_5843)">
<path d="M81.1164 36.2291C81.1164 33.7728 79.1256 31.7894 76.6785 31.7894C74.2312 31.7894 72.2388 33.7728 72.2388 36.2291C72.2388 38.6764 74.2312 40.6597 76.6785 40.6597C79.1256 40.6597 81.1164 38.6764 81.1164 36.2291Z" fill="url(#paint0_linear_11884_5843)"/>
<path d="M87.0297 70.8843C86.8654 74.4877 86.2627 76.4454 85.7624 77.7457C85.0902 79.4697 84.2885 80.7025 82.9883 81.9954C81.7025 83.2885 80.4698 84.0883 78.7457 84.7531C77.4455 85.2608 75.4805 85.8653 71.8772 86.037C67.9818 86.2087 66.8276 86.2453 56.9493 86.2453C47.0801 86.2453 45.9166 86.2087 42.0212 86.037C38.4181 85.8653 36.4621 85.2608 35.1617 84.7531C33.4286 84.0883 32.2051 83.2885 30.912 81.9954C29.6099 80.7025 28.8082 79.4697 28.1452 77.7457C27.6447 76.4454 27.033 74.4877 26.8777 70.8843C26.6879 66.9889 26.6531 65.8164 26.6531 55.9582C26.6531 46.0799 26.6879 44.9166 26.8777 41.021C27.033 37.4179 27.6447 35.462 28.1452 34.1507C28.8082 32.4285 29.6099 31.203 30.912 29.91C32.2051 28.6189 33.4286 27.8171 35.1617 27.1451C36.4621 26.6356 38.4181 26.0402 42.0212 25.8686C45.9166 25.6968 47.0801 25.653 56.9493 25.653C66.8276 25.653 67.9818 25.6968 71.8772 25.8686C75.4805 26.0402 77.4455 26.6356 78.7457 27.1451C80.4698 27.8171 81.7025 28.6189 82.9883 29.91C84.2885 31.203 85.0902 32.4285 85.7624 34.1507C86.2627 35.462 86.8654 37.4179 87.0297 41.021C87.2106 44.9166 87.2543 46.0799 87.2543 55.9582C87.2543 65.8164 87.2106 66.9889 87.0297 70.8843ZM93.6829 40.718C93.5022 36.7804 92.8811 34.0904 91.9589 31.7473C91.0203 29.3165 89.7619 27.2565 87.7018 25.1964C85.651 23.1456 83.5909 21.8872 81.1602 20.9376C78.808 20.0244 76.1269 19.3961 72.1876 19.2245C68.2483 19.0345 66.9901 18.9999 56.9493 18.9999C46.9174 18.9999 45.6501 19.0345 41.7108 19.2245C37.7806 19.3961 35.1014 20.0244 32.7383 20.9376C30.3166 21.8872 28.2566 23.1456 26.2057 25.1964C24.1457 27.2565 22.8873 29.3165 21.9395 31.7473C21.0263 34.0904 20.4054 36.7804 20.2155 40.718C20.0438 44.6573 20 45.9174 20 55.9582C20 65.9901 20.0438 67.2482 20.2155 71.1875C20.4054 75.1177 21.0263 77.806 21.9395 80.1601C22.8873 82.5817 24.1457 84.651 26.2057 86.7018C28.2566 88.7527 30.3166 90.0201 32.7383 90.968C35.1014 91.8811 37.7806 92.502 41.7108 92.6829C45.6501 92.8637 46.9174 92.9075 56.9493 92.9075C66.9901 92.9075 68.2483 92.8637 72.1876 92.6829C76.1269 92.502 78.808 91.8811 81.1602 90.968C83.5909 90.0201 85.651 88.7527 87.7018 86.7018C89.7619 84.651 91.0203 82.5817 91.9589 80.1601C92.8811 77.806 93.5022 75.1177 93.6829 71.1875C93.8638 67.2482 93.9076 65.9901 93.9076 55.9582C93.9076 45.9174 93.8638 44.6573 93.6829 40.718Z" fill="url(#paint1_linear_11884_5843)"/>
<path d="M56.949 68.2657C50.1497 68.2657 44.6326 62.7575 44.6326 55.9582C44.6326 49.148 50.1497 43.6328 56.949 43.6328C63.7502 43.6328 69.2746 49.148 69.2746 55.9582C69.2746 62.7575 63.7502 68.2657 56.949 68.2657ZM56.949 36.9706C46.468 36.9706 37.9795 45.4773 37.9795 55.9582C37.9795 66.4302 46.468 74.9279 56.949 74.9279C67.43 74.9279 75.9276 66.4302 75.9276 55.9582C75.9276 45.4773 67.43 36.9706 56.949 36.9706Z" fill="url(#paint2_linear_11884_5843)"/>
</g>
<defs>
<linearGradient id="paint0_linear_11884_5843" x1="20.6666" y1="92.1434" x2="87.7519" y2="25.0584" gradientUnits="userSpaceOnUse">
<stop stop-color="#FFD521"/>
<stop offset="0.05" stop-color="#FFD521"/>
<stop offset="0.501119" stop-color="#F50000"/>
<stop offset="0.95" stop-color="#B900B4"/>
<stop offset="0.950079" stop-color="#B900B4"/>
<stop offset="1" stop-color="#B900B4"/>
</linearGradient>
<linearGradient id="paint1_linear_11884_5843" x1="20.6666" y1="92.2354" x2="87.807" y2="25.0951" gradientUnits="userSpaceOnUse">
<stop stop-color="#FFD521"/>
<stop offset="0.05" stop-color="#FFD521"/>
<stop offset="0.501119" stop-color="#F50000"/>
<stop offset="0.95" stop-color="#B900B4"/>
<stop offset="0.950079" stop-color="#B900B4"/>
<stop offset="1" stop-color="#B900B4"/>
</linearGradient>
<linearGradient id="paint2_linear_11884_5843" x1="20.6838" y1="92.2372" x2="87.808" y2="25.1131" gradientUnits="userSpaceOnUse">
<stop stop-color="#FFD521"/>
<stop offset="0.05" stop-color="#FFD521"/>
<stop offset="0.501119" stop-color="#F50000"/>
<stop offset="0.95" stop-color="#B900B4"/>
<stop offset="0.950079" stop-color="#B900B4"/>
<stop offset="1" stop-color="#B900B4"/>
</linearGradient>
<clipPath id="clip0_11884_5843">
<rect width="74" height="74" fill="white" transform="translate(20 19)"/>
</clipPath>
</defs>
</svg>
